<mxfile host="app.diagrams.net" modified="2024-04-04T06:58:25.132Z" agent="Mozilla/5.0 (X11; Linux x86_64) AppleWebKit/537.36 (KHTML, like Gecko) Chrome/121.0.0.0 Safari/537.36" etag="JGW2Dfb5hbU1kzkFGpsU" version="24.2.1" type="device">
  <diagram name="Page-1" id="kD6Avx92nSNy_YfQhQxK">
    <mxGraphModel dx="1434" dy="767" grid="1" gridSize="10" guides="1" tooltips="1" connect="1" arrows="1" fold="1" page="1" pageScale="1" pageWidth="4681" pageHeight="3300" math="0" shadow="0">
      <root>
        <mxCell id="0" />
        <mxCell id="1" parent="0" />
        <mxCell id="vtn2dfwkqZp6NCNMuptc-3" value="" style="group" vertex="1" connectable="0" parent="1">
          <mxGeometry x="160" y="120" width="490" height="370" as="geometry" />
        </mxCell>
        <mxCell id="vtn2dfwkqZp6NCNMuptc-1" value="" style="rounded=1;whiteSpace=wrap;html=1;" vertex="1" parent="vtn2dfwkqZp6NCNMuptc-3">
          <mxGeometry width="490" height="369.99999999999994" as="geometry" />
        </mxCell>
        <mxCell id="vtn2dfwkqZp6NCNMuptc-2" value="Github&lt;div&gt;&lt;br&gt;&lt;/div&gt;" style="dashed=0;outlineConnect=0;html=1;align=center;labelPosition=center;verticalLabelPosition=bottom;verticalAlign=top;shape=mxgraph.weblogos.github;opacity=60;" vertex="1" parent="vtn2dfwkqZp6NCNMuptc-3">
          <mxGeometry x="30" y="302.7272727272727" width="50" height="42.37060606060606" as="geometry" />
        </mxCell>
        <mxCell id="vtn2dfwkqZp6NCNMuptc-8" value="Github Repo" style="rounded=0;whiteSpace=wrap;html=1;verticalAlign=bottom;align=left;spacingTop=0;spacingLeft=5;spacingBottom=5;" vertex="1" parent="vtn2dfwkqZp6NCNMuptc-3">
          <mxGeometry x="70" y="44.848484848484844" width="340" height="246.66666666666663" as="geometry" />
        </mxCell>
        <mxCell id="vtn2dfwkqZp6NCNMuptc-25" value="OIDC" style="points=[[0,0.5,0],[0.24,0,0],[0.5,0.28,0],[0.995,0.475,0],[0.5,0.72,0],[0.24,1,0]];verticalLabelPosition=bottom;sketch=0;html=1;verticalAlign=top;aspect=fixed;align=center;pointerEvents=1;shape=mxgraph.cisco19.key;fillColor=#005073;strokeColor=none;" vertex="1" parent="vtn2dfwkqZp6NCNMuptc-3">
          <mxGeometry x="90" y="89.69696969696969" width="50" height="22.5" as="geometry" />
        </mxCell>
        <mxCell id="vtn2dfwkqZp6NCNMuptc-27" value="" style="group" vertex="1" connectable="0" parent="vtn2dfwkqZp6NCNMuptc-3">
          <mxGeometry x="210" y="67.27272727272727" width="160" height="168.18181818181816" as="geometry" />
        </mxCell>
        <mxCell id="vtn2dfwkqZp6NCNMuptc-13" value="Github&lt;div&gt;Workflow&lt;/div&gt;&lt;div&gt;Actions&lt;/div&gt;" style="rounded=0;whiteSpace=wrap;html=1;align=left;verticalAlign=bottom;spacingLeft=6;spacingBottom=5;" vertex="1" parent="vtn2dfwkqZp6NCNMuptc-27">
          <mxGeometry width="160" height="168.18181818181816" as="geometry" />
        </mxCell>
        <mxCell id="vtn2dfwkqZp6NCNMuptc-16" value="" style="verticalLabelPosition=bottom;aspect=fixed;html=1;shape=mxgraph.salesforce.workflow;" vertex="1" parent="vtn2dfwkqZp6NCNMuptc-27">
          <mxGeometry x="100" y="22.424242424242422" width="40" height="40" as="geometry" />
        </mxCell>
        <mxCell id="vtn2dfwkqZp6NCNMuptc-17" value="" style="verticalLabelPosition=bottom;aspect=fixed;html=1;shape=mxgraph.salesforce.workflow;" vertex="1" parent="vtn2dfwkqZp6NCNMuptc-27">
          <mxGeometry x="100" y="112.12121212121211" width="40" height="40" as="geometry" />
        </mxCell>
        <mxCell id="vtn2dfwkqZp6NCNMuptc-42" value="&lt;span style=&quot;font-size: 16px;&quot;&gt;2&lt;/span&gt;" style="ellipse;whiteSpace=wrap;html=1;aspect=fixed;fillColor=#f8cecc;strokeColor=#b85450;" vertex="1" parent="vtn2dfwkqZp6NCNMuptc-27">
          <mxGeometry x="10" y="78.48484848484847" width="30" height="30" as="geometry" />
        </mxCell>
        <mxCell id="vtn2dfwkqZp6NCNMuptc-7" value="Developers" style="sketch=0;outlineConnect=0;fontColor=#232F3E;gradientColor=none;fillColor=#232F3D;strokeColor=none;dashed=0;verticalLabelPosition=bottom;verticalAlign=top;align=center;html=1;fontSize=12;fontStyle=0;aspect=fixed;pointerEvents=1;shape=mxgraph.aws4.users;" vertex="1" parent="1">
          <mxGeometry x="361" y="580" width="78" height="78" as="geometry" />
        </mxCell>
        <mxCell id="vtn2dfwkqZp6NCNMuptc-14" style="rounded=0;orthogonalLoop=1;jettySize=auto;html=1;entryX=0.5;entryY=1;entryDx=0;entryDy=0;" edge="1" parent="1" source="vtn2dfwkqZp6NCNMuptc-7" target="vtn2dfwkqZp6NCNMuptc-8">
          <mxGeometry relative="1" as="geometry" />
        </mxCell>
        <mxCell id="vtn2dfwkqZp6NCNMuptc-15" value="git push" style="edgeLabel;html=1;align=center;verticalAlign=middle;resizable=0;points=[];fontSize=14;" vertex="1" connectable="0" parent="vtn2dfwkqZp6NCNMuptc-14">
          <mxGeometry relative="1" as="geometry">
            <mxPoint as="offset" />
          </mxGeometry>
        </mxCell>
        <mxCell id="vtn2dfwkqZp6NCNMuptc-26" style="edgeStyle=orthogonalEdgeStyle;rounded=0;orthogonalLoop=1;jettySize=auto;html=1;dashed=1;endArrow=none;endFill=0;" edge="1" parent="1" source="vtn2dfwkqZp6NCNMuptc-25" target="vtn2dfwkqZp6NCNMuptc-20">
          <mxGeometry relative="1" as="geometry">
            <Array as="points">
              <mxPoint x="255" y="80" />
              <mxPoint x="1271" y="80" />
            </Array>
          </mxGeometry>
        </mxCell>
        <mxCell id="vtn2dfwkqZp6NCNMuptc-4" value="" style="rounded=1;whiteSpace=wrap;html=1;" vertex="1" parent="1">
          <mxGeometry x="820" y="120" width="490" height="370" as="geometry" />
        </mxCell>
        <mxCell id="vtn2dfwkqZp6NCNMuptc-29" value="Windows Server" style="rounded=0;whiteSpace=wrap;html=1;align=left;verticalAlign=bottom;spacingLeft=5;spacingBottom=5;" vertex="1" parent="1">
          <mxGeometry x="1030" y="250" width="225" height="190" as="geometry" />
        </mxCell>
        <mxCell id="vtn2dfwkqZp6NCNMuptc-5" value="" style="outlineConnect=0;dashed=0;verticalLabelPosition=bottom;verticalAlign=top;align=center;html=1;shape=mxgraph.aws3.cloud_2;fillColor=#F58534;gradientColor=none;opacity=60;" vertex="1" parent="1">
          <mxGeometry x="860" y="430" width="50" height="45" as="geometry" />
        </mxCell>
        <mxCell id="vtn2dfwkqZp6NCNMuptc-19" value="AWS S3" style="sketch=0;points=[[0,0,0],[0.25,0,0],[0.5,0,0],[0.75,0,0],[1,0,0],[0,1,0],[0.25,1,0],[0.5,1,0],[0.75,1,0],[1,1,0],[0,0.25,0],[0,0.5,0],[0,0.75,0],[1,0.25,0],[1,0.5,0],[1,0.75,0]];outlineConnect=0;fontColor=#232F3E;fillColor=#7AA116;strokeColor=#ffffff;dashed=0;verticalLabelPosition=bottom;verticalAlign=top;align=center;html=1;fontSize=12;fontStyle=0;aspect=fixed;shape=mxgraph.aws4.resourceIcon;resIcon=mxgraph.aws4.s3;direction=east;" vertex="1" parent="1">
          <mxGeometry x="920" y="200" width="48" height="48" as="geometry" />
        </mxCell>
        <mxCell id="vtn2dfwkqZp6NCNMuptc-20" value="AWS IAM" style="outlineConnect=0;dashed=0;verticalLabelPosition=bottom;verticalAlign=top;align=center;html=1;shape=mxgraph.aws3.iam;fillColor=#759C3E;gradientColor=none;" vertex="1" parent="1">
          <mxGeometry x="1230" y="141.5" width="32" height="58.5" as="geometry" />
        </mxCell>
        <mxCell id="vtn2dfwkqZp6NCNMuptc-37" style="rounded=0;orthogonalLoop=1;jettySize=auto;html=1;" edge="1" parent="1" source="vtn2dfwkqZp6NCNMuptc-22" target="vtn2dfwkqZp6NCNMuptc-34">
          <mxGeometry relative="1" as="geometry" />
        </mxCell>
        <mxCell id="vtn2dfwkqZp6NCNMuptc-22" value="AWS CodeDeploy" style="sketch=0;points=[[0,0,0],[0.25,0,0],[0.5,0,0],[0.75,0,0],[1,0,0],[0,1,0],[0.25,1,0],[0.5,1,0],[0.75,1,0],[1,1,0],[0,0.25,0],[0,0.5,0],[0,0.75,0],[1,0.25,0],[1,0.5,0],[1,0.75,0]];outlineConnect=0;fontColor=#232F3E;fillColor=#C925D1;strokeColor=#ffffff;dashed=0;verticalLabelPosition=bottom;verticalAlign=top;align=center;html=1;fontSize=12;fontStyle=0;aspect=fixed;shape=mxgraph.aws4.resourceIcon;resIcon=mxgraph.aws4.codedeploy;" vertex="1" parent="1">
          <mxGeometry x="890" y="289.39" width="50" height="50" as="geometry" />
        </mxCell>
        <mxCell id="vtn2dfwkqZp6NCNMuptc-23" value="AWS EC2&lt;div&gt;&lt;br&gt;&lt;/div&gt;" style="sketch=0;points=[[0,0,0],[0.25,0,0],[0.5,0,0],[0.75,0,0],[1,0,0],[0,1,0],[0.25,1,0],[0.5,1,0],[0.75,1,0],[1,1,0],[0,0.25,0],[0,0.5,0],[0,0.75,0],[1,0.25,0],[1,0.5,0],[1,0.75,0]];outlineConnect=0;fontColor=#232F3E;fillColor=#ED7100;strokeColor=#ffffff;dashed=0;verticalLabelPosition=bottom;verticalAlign=top;align=center;html=1;fontSize=12;fontStyle=0;aspect=fixed;shape=mxgraph.aws4.resourceIcon;resIcon=mxgraph.aws4.ec2;opacity=70;" vertex="1" parent="1">
          <mxGeometry x="1210" y="390" width="29" height="29" as="geometry" />
        </mxCell>
        <mxCell id="vtn2dfwkqZp6NCNMuptc-30" style="rounded=0;orthogonalLoop=1;jettySize=auto;html=1;" edge="1" parent="1" source="vtn2dfwkqZp6NCNMuptc-16" target="vtn2dfwkqZp6NCNMuptc-19">
          <mxGeometry relative="1" as="geometry" />
        </mxCell>
        <mxCell id="vtn2dfwkqZp6NCNMuptc-31" value="&lt;font style=&quot;font-size: 13px;&quot;&gt;Code Build &amp;amp; Upload&lt;/font&gt;" style="edgeLabel;html=1;align=center;verticalAlign=middle;resizable=0;points=[];" vertex="1" connectable="0" parent="vtn2dfwkqZp6NCNMuptc-30">
          <mxGeometry x="0.0267" y="1" relative="1" as="geometry">
            <mxPoint as="offset" />
          </mxGeometry>
        </mxCell>
        <mxCell id="vtn2dfwkqZp6NCNMuptc-32" style="rounded=0;orthogonalLoop=1;jettySize=auto;html=1;exitX=0.975;exitY=0.55;exitDx=0;exitDy=0;exitPerimeter=0;" edge="1" parent="1" source="vtn2dfwkqZp6NCNMuptc-17" target="vtn2dfwkqZp6NCNMuptc-22">
          <mxGeometry relative="1" as="geometry">
            <mxPoint x="520" y="239" as="sourcePoint" />
            <mxPoint x="900" y="210" as="targetPoint" />
          </mxGeometry>
        </mxCell>
        <mxCell id="vtn2dfwkqZp6NCNMuptc-33" value="&lt;font style=&quot;font-size: 13px;&quot;&gt;Code Deploy&lt;/font&gt;" style="edgeLabel;html=1;align=center;verticalAlign=middle;resizable=0;points=[];" vertex="1" connectable="0" parent="vtn2dfwkqZp6NCNMuptc-32">
          <mxGeometry x="0.0267" y="1" relative="1" as="geometry">
            <mxPoint as="offset" />
          </mxGeometry>
        </mxCell>
        <mxCell id="vtn2dfwkqZp6NCNMuptc-34" value="AWS Code&lt;div&gt;Deploy Agent&lt;/div&gt;&lt;div&gt;Installed&lt;/div&gt;" style="sketch=0;points=[[0,0,0],[0.25,0,0],[0.5,0,0],[0.75,0,0],[1,0,0],[0,1,0],[0.25,1,0],[0.5,1,0],[0.75,1,0],[1,1,0],[0,0.25,0],[0,0.5,0],[0,0.75,0],[1,0.25,0],[1,0.5,0],[1,0.75,0]];outlineConnect=0;fontColor=#232F3E;fillColor=#C925D1;strokeColor=#ffffff;dashed=0;verticalLabelPosition=bottom;verticalAlign=top;align=center;html=1;fontSize=12;fontStyle=0;aspect=fixed;shape=mxgraph.aws4.resourceIcon;resIcon=mxgraph.aws4.codedeploy;opacity=50;" vertex="1" parent="1">
          <mxGeometry x="1100" y="290" width="50" height="50" as="geometry" />
        </mxCell>
        <mxCell id="vtn2dfwkqZp6NCNMuptc-36" style="rounded=0;orthogonalLoop=1;jettySize=auto;html=1;entryX=0.5;entryY=1;entryDx=0;entryDy=0;dashed=1;endArrow=none;endFill=0;curved=0;" edge="1" parent="1" source="vtn2dfwkqZp6NCNMuptc-35" target="vtn2dfwkqZp6NCNMuptc-29">
          <mxGeometry relative="1" as="geometry" />
        </mxCell>
        <mxCell id="vtn2dfwkqZp6NCNMuptc-35" value="&lt;div&gt;App users&lt;/div&gt;&lt;div&gt;&lt;br&gt;&lt;/div&gt;" style="html=1;verticalLabelPosition=bottom;align=center;labelBackgroundColor=#ffffff;verticalAlign=top;strokeWidth=2;strokeColor=#0080F0;shadow=0;dashed=0;shape=mxgraph.ios7.icons.smartphone;" vertex="1" parent="1">
          <mxGeometry x="1120" y="540" width="50" height="80" as="geometry" />
        </mxCell>
        <mxCell id="vtn2dfwkqZp6NCNMuptc-38" style="edgeStyle=orthogonalEdgeStyle;rounded=0;orthogonalLoop=1;jettySize=auto;html=1;startArrow=classic;startFill=1;entryX=1;entryY=0.5;entryDx=0;entryDy=0;entryPerimeter=0;" edge="1" parent="1" source="vtn2dfwkqZp6NCNMuptc-34" target="vtn2dfwkqZp6NCNMuptc-19">
          <mxGeometry relative="1" as="geometry">
            <Array as="points">
              <mxPoint x="1120" y="224" />
            </Array>
          </mxGeometry>
        </mxCell>
        <mxCell id="vtn2dfwkqZp6NCNMuptc-41" value="&lt;font style=&quot;font-size: 16px;&quot;&gt;1&lt;/font&gt;" style="ellipse;whiteSpace=wrap;html=1;aspect=fixed;fillColor=#f8cecc;strokeColor=#b85450;" vertex="1" parent="1">
          <mxGeometry x="420" y="520" width="30" height="30" as="geometry" />
        </mxCell>
        <mxCell id="vtn2dfwkqZp6NCNMuptc-43" value="&lt;span style=&quot;font-size: 16px;&quot;&gt;3&lt;/span&gt;" style="ellipse;whiteSpace=wrap;html=1;aspect=fixed;fillColor=#f8cecc;strokeColor=#b85450;" vertex="1" parent="1">
          <mxGeometry x="760" y="40" width="30" height="30" as="geometry" />
        </mxCell>
        <mxCell id="vtn2dfwkqZp6NCNMuptc-44" value="&lt;font style=&quot;font-size: 16px;&quot;&gt;4&lt;/font&gt;" style="ellipse;whiteSpace=wrap;html=1;aspect=fixed;fillColor=#f8cecc;strokeColor=#b85450;" vertex="1" parent="1">
          <mxGeometry x="690" y="170" width="30" height="30" as="geometry" />
        </mxCell>
        <mxCell id="vtn2dfwkqZp6NCNMuptc-45" value="&lt;span style=&quot;font-size: 16px;&quot;&gt;5&lt;/span&gt;" style="ellipse;whiteSpace=wrap;html=1;aspect=fixed;fillColor=#f8cecc;strokeColor=#b85450;" vertex="1" parent="1">
          <mxGeometry x="690" y="270" width="30" height="30" as="geometry" />
        </mxCell>
        <mxCell id="vtn2dfwkqZp6NCNMuptc-46" value="&lt;span style=&quot;font-size: 16px;&quot;&gt;6&lt;/span&gt;" style="ellipse;whiteSpace=wrap;html=1;aspect=fixed;fillColor=#f8cecc;strokeColor=#b85450;" vertex="1" parent="1">
          <mxGeometry x="1000" y="280" width="30" height="30" as="geometry" />
        </mxCell>
        <mxCell id="vtn2dfwkqZp6NCNMuptc-47" value="&lt;span style=&quot;font-size: 16px;&quot;&gt;7&lt;/span&gt;" style="ellipse;whiteSpace=wrap;html=1;aspect=fixed;fillColor=#f8cecc;strokeColor=#b85450;" vertex="1" parent="1">
          <mxGeometry x="1060" y="190" width="30" height="30" as="geometry" />
        </mxCell>
      </root>
    </mxGraphModel>
  </diagram>
</mxfile>
